<svg width="36" height="36" viewBox="0 0 36 36" fill="none" xmlns="http://www.w3.org/2000/svg">
<mask id="path-1-inside-1_16_160" fill="white">
<path d="M36 18C36 27.9411 27.9411 36 18 36C8.05888 36 0 27.9411 0 18C0 8.05888 8.05888 0 18 0C27.9411 0 36 8.05888 36 18Z"/>
</mask>
<path d="M11.1415 17.1822C10.8618 16.8766 10.3874 16.8557 10.0818 17.1354C9.77629 17.415 9.75534 17.8895 10.035 18.195L11.1415 17.1822ZM15.7195 23.2941L15.1662 23.8005L15.7195 24.4049L16.2727 23.8005L15.7195 23.2941ZM25.965 13.2123C26.2447 12.9068 26.2237 12.4323 25.9182 12.1527C25.6126 11.873 25.1382 11.8939 24.8585 12.1995L25.965 13.2123ZM10.035 18.195L15.1662 23.8005L16.2727 22.7877L11.1415 17.1822L10.035 18.195ZM15.7195 23.2941C16.2727 23.8005 16.2727 23.8005 16.2727 23.8005C16.2728 23.8004 16.2729 23.8003 16.2729 23.8002C16.2732 23.7999 16.2733 23.7998 16.2738 23.7993C16.2745 23.7985 16.2755 23.7974 16.277 23.7958C16.2798 23.7927 16.2841 23.788 16.2897 23.7819C16.3011 23.7695 16.3178 23.7512 16.3399 23.727C16.3841 23.6788 16.4494 23.6074 16.5339 23.5152C16.7028 23.3306 16.9483 23.0624 17.2548 22.7276C17.8678 22.058 18.7245 21.1221 19.6994 20.057C21.6494 17.9268 24.0724 15.2798 25.965 13.2123L24.8585 12.1995C22.966 14.267 20.5429 16.914 18.593 19.0442C17.618 20.1093 16.7613 21.0452 16.1484 21.7148C15.8419 22.0496 15.5964 22.3178 15.4275 22.5023C15.343 22.5946 15.2777 22.666 15.2335 22.7142C15.2114 22.7383 15.1946 22.7568 15.1833 22.7691C15.1776 22.7753 15.1734 22.7799 15.1705 22.783C15.1691 22.7845 15.168 22.7858 15.1673 22.7865C15.1669 22.7869 15.1667 22.7872 15.1665 22.7874C15.1664 22.7875 15.1664 22.7876 15.1663 22.7876C15.1663 22.7877 15.1662 22.7877 15.7195 23.2941ZM34.5 18C34.5 27.1127 27.1127 34.5 18 34.5V37.5C28.7696 37.5 37.5 28.7696 37.5 18H34.5ZM18 34.5C8.8873 34.5 1.5 27.1127 1.5 18H-1.5C-1.5 28.7696 7.23045 37.5 18 37.5V34.5ZM1.5 18C1.5 8.8873 8.8873 1.5 18 1.5V-1.5C7.23045 -1.5 -1.5 7.23045 -1.5 18H1.5ZM18 1.5C27.1127 1.5 34.5 8.8873 34.5 18H37.5C37.5 7.23045 28.7696 -1.5 18 -1.5V1.5Z" fill="#982370" mask="url(#path-1-inside-1_16_160)"/>
</svg>
