<svg width="30" height="31" viewBox="0 0 30 31" fill="none" xmlns="http://www.w3.org/2000/svg">
<rect y="0.336182" width="30" height="30" rx="15" fill="#3C589A"/>
<path d="M17.8409 9.65593L16.367 9.65356C14.7112 9.65356 13.6411 10.7514 13.6411 12.4506V13.7403H12.1592C12.0312 13.7403 11.9275 13.8441 11.9275 13.9721V15.8407C11.9275 15.9687 12.0313 16.0724 12.1592 16.0724H13.6411V20.7874C13.6411 20.9154 13.7448 21.0191 13.8729 21.0191H15.8063C15.9344 21.0191 16.0381 20.9153 16.0381 20.7874V16.0724H17.7708C17.8988 16.0724 18.0025 15.9687 18.0025 15.8407L18.0032 13.9721C18.0032 13.9107 17.9788 13.8518 17.9354 13.8083C17.892 13.7648 17.8328 13.7403 17.7714 13.7403H16.0381V12.647C16.0381 12.1216 16.1633 11.8548 16.8478 11.8548L17.8406 11.8545C17.9686 11.8545 18.0723 11.7507 18.0723 11.6227V9.88768C18.0723 9.75986 17.9687 9.65617 17.8409 9.65593Z" fill="white"/>
</svg>
