<svg width="30" height="31" viewBox="0 0 30 31" fill="none" xmlns="http://www.w3.org/2000/svg">
<rect y="0.336182" width="30" height="30" rx="15" fill="#C131A1"/>
<path fill-rule="evenodd" clip-rule="evenodd" d="M9.5 12.1166C9.5 10.7037 10.6454 9.55835 12.0583 9.55835H17.9419C19.3548 9.55835 20.5001 10.7037 20.5001 12.1166V18.5558C20.5001 19.9687 19.3548 21.1141 17.9419 21.1141H12.0583C10.6454 21.1141 9.5 19.9687 9.5 18.5558V12.1166ZM12.3556 15.3359C12.3556 13.8631 13.5496 12.6692 15.0223 12.6692C16.4951 12.6692 17.689 13.8631 17.689 15.3359V15.4932C17.689 16.966 16.4951 18.1599 15.0223 18.1599C13.5496 18.1599 12.3556 16.966 12.3556 15.4932V15.3359ZM18.1219 11.2251C17.723 11.2251 17.3996 11.5485 17.3996 11.9474C17.3996 12.3462 17.723 12.6696 18.1219 12.6696C18.5207 12.6696 18.8441 12.3462 18.8441 11.9474C18.8441 11.5485 18.5207 11.2251 18.1219 11.2251Z" fill="white"/>
<path d="M13.3689 15.3362C13.3689 14.4353 14.0992 13.7051 15 13.7051C15.9009 13.7051 16.6312 14.4353 16.6312 15.3362C16.6312 16.237 15.9009 16.9673 15 16.9673C14.0992 16.9673 13.3689 16.237 13.3689 15.3362Z" fill="white"/>
</svg>
