<svg width="21" height="21" viewBox="0 0 21 21" fill="none" xmlns="http://www.w3.org/2000/svg">
<path d="M17.5937 4H4.40618C4.18971 4 3.98705 4.05322 3.80371 4.14094L10.9687 11.3059L12.5746 9.76256C12.5746 9.76256 12.5747 9.76241 12.5747 9.76234C12.5748 9.76228 12.5749 9.76222 12.5749 9.76222L18.1964 4.14106C18.013 4.05328 17.8102 4 17.5937 4Z" fill="#982370"/>
<path d="M18.8592 4.80396L13.5691 10.0938L18.859 15.3837C18.9467 15.2003 18.9999 14.9977 18.9999 14.7812V5.4062C18.9999 5.18986 18.9468 4.98724 18.8592 4.80396Z" fill="#982370"/>
<path d="M3.14094 4.80396C3.05322 4.9873 3 5.18995 3 5.40642V14.7814C3 14.9978 3.05316 15.2005 3.14081 15.3837L8.4309 10.0939L3.14094 4.80396Z" fill="#982370"/>
<path d="M12.9062 10.7567L11.3001 12.3002C11.2085 12.3917 11.0886 12.4375 10.9687 12.4375C10.8488 12.4375 10.7288 12.3917 10.6373 12.3002L9.09365 10.7566L3.80347 16.0464C3.98684 16.1342 4.18962 16.1875 4.40615 16.1875H17.5937C17.8101 16.1875 18.0128 16.1343 18.1961 16.0466L12.9062 10.7567Z" fill="#982370"/>
</svg>
