<svg width="21" height="21" viewBox="0 0 21 21" fill="none" xmlns="http://www.w3.org/2000/svg">
<path d="M18.8795 14.0094L16.5301 11.6649C15.691 10.8276 14.2645 11.1626 13.9289 12.2511C13.6772 13.0047 12.8381 13.4233 12.0829 13.2558C10.4048 12.8372 8.13926 10.6602 7.71972 8.90179C7.46799 8.14817 7.97144 7.31085 8.72661 7.05969C9.81742 6.72477 10.153 5.30133 9.31397 4.46401L6.96455 2.11952C6.29328 1.5334 5.28639 1.5334 4.69903 2.11952L3.10478 3.71043C1.51053 5.38506 3.2726 9.82284 7.21627 13.7582C11.1599 17.6936 15.6071 19.5357 17.2852 17.8611L18.8795 16.2702C19.4669 15.6003 19.4669 14.5955 18.8795 14.0094Z" fill="#982370"/>
</svg>
