<svg width="28" height="26" viewBox="0 0 28 26" fill="none" xmlns="http://www.w3.org/2000/svg">
<path d="M13.5145 1.08156C13.6641 0.620906 14.3159 0.6209 14.4655 1.08156L16.8867 8.53307C17.0875 9.15111 17.6634 9.56955 18.3133 9.56955H26.1482C26.6326 9.56955 26.834 10.1894 26.4421 10.4741L20.1035 15.0793C19.5778 15.4613 19.3578 16.1384 19.5586 16.7564L21.9797 24.2079C22.1294 24.6686 21.6022 25.0516 21.2103 24.7669L14.8717 20.1616C14.3459 19.7797 13.6341 19.7797 13.1083 20.1616L6.76969 24.7669C6.37783 25.0516 5.85059 24.6686 6.00027 24.2079L8.42141 16.7564C8.62222 16.1384 8.40223 15.4613 7.8765 15.0793L1.53786 10.4741C1.14601 10.1894 1.34739 9.56955 1.83176 9.56955H9.66675C10.3166 9.56955 10.8925 9.15111 11.0933 8.53307L13.5145 1.08156Z" fill="white" stroke="#FFD70C"/>
</svg>
