<svg width="27" height="26" viewBox="0 0 27 26" fill="none" xmlns="http://www.w3.org/2000/svg">
<path d="M12.5689 0.927048C12.8683 0.00573778 14.1717 0.0057404 14.4711 0.927051L16.8922 8.37856C17.0261 8.79059 17.41 9.06955 17.8433 9.06955H25.6782C26.647 9.06955 27.0497 10.3092 26.266 10.8786L19.9274 15.4839C19.5769 15.7385 19.4302 16.1899 19.5641 16.6019L21.9853 24.0534C22.2846 24.9747 21.2301 25.7408 20.4464 25.1714L14.1078 20.5661C13.7573 20.3115 13.2827 20.3115 12.9322 20.5661L6.59358 25.1714C5.80986 25.7408 4.75538 24.9747 5.05474 24.0534L7.47588 16.6019C7.60976 16.1899 7.4631 15.7385 7.11261 15.4839L0.77397 10.8786C-0.00974321 10.3092 0.393034 9.06955 1.36176 9.06955H9.19674C9.62997 9.06955 10.0139 8.79059 10.1478 8.37856L12.5689 0.927048Z" fill="#FFD70C"/>
</svg>
