<svg width="24" height="24" viewBox="0 0 24 24" fill="none" xmlns="http://www.w3.org/2000/svg">
<rect width="24" height="24" rx="12" fill="#32A9E6"/>
<path d="M5.44331 11.9786C5.44331 11.9786 11.0455 9.63706 12.9884 8.81257C13.7332 8.48277 16.259 7.42742 16.259 7.42742C16.259 7.42742 17.4248 6.96571 17.3277 8.08701C17.2953 8.54873 17.0362 10.1647 16.7772 11.9127C16.3886 14.3861 15.9676 17.0905 15.9676 17.0905C15.9676 17.0905 15.9028 17.849 15.3523 17.9809C14.8018 18.1128 13.8951 17.5192 13.7332 17.3873C13.6037 17.2883 11.3045 15.8043 10.4626 15.0787C10.2359 14.8808 9.97685 14.4851 10.495 14.0234C11.6607 12.935 13.0532 11.5829 13.8951 10.7254C14.2837 10.3296 14.6723 9.4062 13.0532 10.5275C10.754 12.1435 8.48726 13.6606 8.48726 13.6606C8.48726 13.6606 7.96914 13.9904 6.99767 13.6936C6.02619 13.3967 4.89281 13.001 4.89281 13.001C4.89281 13.001 4.11563 12.5063 5.44331 11.9786Z" fill="white"/>
</svg>
