<svg width="24" height="24" viewBox="0 0 24 24" fill="none" xmlns="http://www.w3.org/2000/svg">
<rect width="24" height="24" rx="12" fill="#665CAC"/>
<path d="M16.8968 6.63341C16.5646 6.32927 15.226 5.35683 12.2447 5.34282C12.2447 5.34282 8.72708 5.13073 7.0123 6.70344C6.05787 7.65788 5.72171 9.05451 5.6877 10.7873C5.65168 12.5201 5.60566 15.7636 8.73508 16.644H8.73708L8.73508 17.9866C8.73508 17.9866 8.71507 18.5308 9.07324 18.6409C9.50543 18.7749 9.75955 18.3627 10.1737 17.9165C10.3998 17.6724 10.714 17.3123 10.9501 17.0381C13.0891 17.2182 14.7358 16.806 14.9219 16.746C15.3541 16.6059 17.7992 16.2918 18.1954 13.0483C18.6056 9.70481 17.9953 7.58784 16.8968 6.63341ZM17.259 12.8082C16.9228 15.5175 14.9399 15.6895 14.5757 15.8056C14.4197 15.8556 12.975 16.2158 11.1582 16.0957C11.1582 16.0957 9.80357 17.7285 9.38138 18.1546C9.31535 18.2207 9.23731 18.2487 9.18529 18.2347C9.11325 18.2167 9.09325 18.1306 9.09325 18.0046C9.09525 17.8245 9.10525 15.7736 9.10525 15.7736C9.10325 15.7736 9.10325 15.7736 9.10525 15.7736C6.46005 15.0392 6.61412 12.276 6.64413 10.8293C6.67415 9.38266 6.94627 8.19812 7.75264 7.40176C9.2033 6.08916 12.1907 6.28525 12.1907 6.28525C14.7138 6.29726 15.9224 7.0556 16.2025 7.30972C17.1309 8.10808 17.6051 10.0149 17.259 12.8082Z" fill="white"/>
<path d="M13.4706 10.7156C13.4386 10.0533 13.1024 9.70711 12.4622 9.6731" stroke="white" stroke-width="0.844187" stroke-linecap="round" stroke-linejoin="round"/>
<path d="M14.3353 11.0065C14.3493 10.3903 14.1672 9.87604 13.7871 9.46185C13.4069 9.04766 12.8807 8.81755 12.2043 8.76953" stroke="white" stroke-width="0.844187" stroke-linecap="round" stroke-linejoin="round"/>
<path d="M15.221 11.3514C15.213 10.2809 14.8928 9.44055 14.2625 8.82427C13.6323 8.20999 12.8459 7.89785 11.9075 7.89185" stroke="white" stroke-width="0.844187" stroke-linecap="round" stroke-linejoin="round"/>
<path d="M12.4962 12.973C12.4962 12.973 12.7344 12.993 12.8604 12.8349L13.1085 12.5228C13.2286 12.3667 13.5187 12.2687 13.8028 12.4267C13.9609 12.5168 14.245 12.6909 14.4211 12.8209C14.6092 12.959 14.9954 13.2811 14.9954 13.2811C15.1795 13.4352 15.2215 13.6633 15.0974 13.9034C15.0974 13.9054 15.0954 13.9074 15.0954 13.9074C14.9674 14.1335 14.7953 14.3476 14.5772 14.5457C14.5752 14.5477 14.5752 14.5477 14.5732 14.5497C14.3951 14.6978 14.219 14.7838 14.0469 14.8038C14.0269 14.8078 14.0009 14.8098 13.9709 14.8078C13.8949 14.8078 13.8208 14.7978 13.7468 14.7738L13.7408 14.7658C13.4747 14.6918 13.0325 14.5037 12.2942 14.0975C11.8139 13.8334 11.4158 13.5633 11.0796 13.2951C10.9015 13.1551 10.7194 12.995 10.5333 12.8109C10.5273 12.8049 10.5213 12.7989 10.5153 12.7929C10.5093 12.7869 10.5033 12.7809 10.4973 12.7749C10.4913 12.7689 10.4853 12.7629 10.4793 12.7569C10.4733 12.7509 10.4673 12.7449 10.4613 12.7389C10.2772 12.5528 10.1172 12.3707 9.9771 12.1926C9.70897 11.8565 9.43885 11.4563 9.17473 10.9781C8.76855 10.2397 8.58046 9.79755 8.50643 9.53143L8.49842 9.52542C8.47441 9.45139 8.46241 9.37736 8.46441 9.30132C8.46241 9.27131 8.46441 9.2453 8.46841 9.22529C8.48842 9.05321 8.57446 8.87713 8.72253 8.69905C8.72453 8.69705 8.72453 8.69705 8.72653 8.69505C8.92462 8.47695 9.13671 8.30487 9.36482 8.17681C9.36682 8.17681 9.36882 8.17481 9.36882 8.17481C9.60893 8.05075 9.83703 8.09277 9.9911 8.27686C9.9931 8.27886 10.3132 8.66303 10.4513 8.85112C10.5814 9.0292 10.7575 9.31133 10.8455 9.4694C11.0036 9.75353 10.9055 10.0437 10.7494 10.1637L10.4373 10.4118C10.2792 10.5399 10.2992 10.776 10.2992 10.776C10.2992 10.776 10.7635 12.5308 12.4962 12.973Z" fill="white"/>
</svg>
