<svg width="30" height="31" viewBox="0 0 30 31" fill="none" xmlns="http://www.w3.org/2000/svg">
<rect y="0.336182" width="30" height="30" rx="15" fill="#4C77A6"/>
<path fill-rule="evenodd" clip-rule="evenodd" d="M20.0488 16.4123C20.5132 16.8657 21.0034 17.2923 21.4199 17.7914C21.6039 18.0132 21.7781 18.2421 21.9113 18.4995C22.1001 18.8654 21.9291 19.2681 21.601 19.2899L19.5615 19.289C19.0355 19.3327 18.6158 19.1209 18.263 18.7612C17.9806 18.4736 17.7191 18.1675 17.4476 17.8702C17.3363 17.7486 17.2198 17.6343 17.0806 17.5439C16.8021 17.3632 16.5605 17.4185 16.4014 17.7089C16.2393 18.0042 16.2026 18.3313 16.1867 18.6604C16.1648 19.1407 16.0196 19.267 15.5372 19.289C14.5062 19.3376 13.5278 19.1816 12.6188 18.6615C11.8174 18.203 11.196 17.5557 10.6551 16.8229C9.60201 15.396 8.79553 13.8281 8.0707 12.2163C7.90755 11.8531 8.02687 11.6582 8.42755 11.6513C9.09291 11.6384 9.75817 11.6393 10.4243 11.6504C10.6947 11.6543 10.8737 11.8094 10.9782 12.0649C11.3381 12.95 11.7786 13.7922 12.3315 14.5727C12.4787 14.7806 12.6289 14.9884 12.8427 15.1346C13.0792 15.2966 13.2593 15.2429 13.3705 14.9794C13.4411 14.8124 13.4721 14.6324 13.488 14.4535C13.5407 13.8379 13.5476 13.2234 13.4552 12.61C13.3984 12.2271 13.1828 11.9793 12.8008 11.9069C12.6058 11.8699 12.6349 11.7974 12.7292 11.6861C12.8932 11.4942 13.0474 11.3748 13.3547 11.3748H15.6597C16.0226 11.4464 16.1032 11.6094 16.1528 11.9745L16.1548 14.5349C16.1509 14.6762 16.2254 15.0957 16.48 15.1892C16.6838 15.2558 16.8181 15.0928 16.9404 14.9636C17.4922 14.3779 17.8861 13.6857 18.238 12.9689C18.3942 12.6537 18.5284 12.3264 18.6586 11.9994C18.755 11.7567 18.9063 11.6373 19.1796 11.6426L21.398 11.6445C21.4638 11.6445 21.5304 11.6455 21.5941 11.6564C21.9679 11.7201 22.0703 11.8809 21.9549 12.2459C21.773 12.8187 21.419 13.2959 21.0729 13.7754C20.703 14.2873 20.3073 14.7817 19.9404 15.2966C19.6034 15.7669 19.6301 16.0039 20.0488 16.4123Z" fill="white"/>
</svg>
