<svg width="24" height="24" viewBox="0 0 24 24" fill="none" xmlns="http://www.w3.org/2000/svg">
<rect width="24" height="24" rx="12" fill="#01D363"/>
<path d="M18.7606 11.6597C18.7606 15.2973 15.7891 18.2461 12.123 18.2461C10.9591 18.2461 9.86568 17.9487 8.91439 17.4266L5.2395 18.5944L6.43762 15.0605C5.83323 14.0681 5.48514 12.9041 5.48514 11.6597C5.48514 8.02205 8.45693 5.07324 12.123 5.07324C15.7894 5.07324 18.7606 8.02205 18.7606 11.6597ZM12.123 6.12218C9.04555 6.12218 6.54234 8.60631 6.54234 11.6597C6.54234 12.8713 6.9373 13.9934 7.6054 14.9063L6.90816 16.9628L9.05276 16.2812C9.93389 16.8598 10.9894 17.1972 12.1231 17.1972C15.2001 17.1972 17.7037 14.7134 17.7037 11.66C17.7037 8.60661 15.2002 6.12218 12.123 6.12218ZM15.4748 13.1766C15.4338 13.1094 15.3255 13.0689 15.163 12.9882C15.0001 12.9075 14.2 12.5168 14.0512 12.4631C13.902 12.4094 13.7933 12.3823 13.6849 12.5438C13.5766 12.7055 13.2647 13.0689 13.1696 13.1766C13.0747 13.2846 12.9799 13.2981 12.817 13.2173C12.6545 13.1366 12.1303 12.966 11.5088 12.4161C11.0252 11.9882 10.6986 11.46 10.6036 11.2982C10.5088 11.1367 10.5937 11.0494 10.675 10.9691C10.7483 10.8966 10.8378 10.7805 10.9191 10.6863C11.0007 10.592 11.0277 10.5248 11.0817 10.4169C11.1362 10.3092 11.109 10.215 11.0682 10.134C11.0276 10.0534 10.7019 9.25893 10.5664 8.93563C10.4309 8.61262 10.2955 8.66641 10.2004 8.66641C10.1056 8.66641 9.99698 8.65289 9.88852 8.65289C9.78005 8.65289 9.60367 8.6933 9.45449 8.8548C9.30545 9.01645 8.88525 9.40706 8.88525 10.2014C8.88525 10.9958 9.46801 11.7633 9.54959 11.8709C9.63086 11.9785 10.6748 13.6617 12.3289 14.3082C13.9832 14.9543 13.9832 14.7387 14.2815 14.7117C14.5796 14.6848 15.2439 14.3212 15.38 13.9445C15.5153 13.5671 15.5153 13.2439 15.4748 13.1766Z" fill="white"/>
</svg>
