<svg width="30" height="31" viewBox="0 0 30 31" fill="none" xmlns="http://www.w3.org/2000/svg">
<rect y="0.336182" width="30" height="30" rx="15" fill="#B50508"/>
<path d="M20.2048 15.5546C20.1418 15.2682 20.0021 15.028 19.7862 14.834C19.5702 14.6399 19.3215 14.5259 19.04 14.4919C18.1471 14.3949 16.8005 14.3464 15 14.3464C13.1995 14.3464 11.8553 14.3949 10.9672 14.4919C10.681 14.5259 10.4311 14.6399 10.2175 14.834C10.0039 15.0281 9.86318 15.2683 9.79521 15.5546C9.66906 16.1176 9.60596 16.9668 9.60596 18.1024C9.60596 19.2574 9.66906 20.1066 9.79521 20.6502C9.85839 20.9364 9.99793 21.1768 10.2139 21.3707C10.4298 21.5649 10.6785 21.6765 10.96 21.7056C11.853 21.8075 13.1997 21.8585 15 21.8585C16.8003 21.8585 18.1472 21.8075 19.0399 21.7056C19.3215 21.6765 19.5689 21.5649 19.7825 21.3707C19.9961 21.1768 20.1368 20.9364 20.2047 20.6502C20.3309 20.0872 20.394 19.238 20.394 18.1024C20.394 16.9475 20.3308 16.0982 20.2048 15.5546ZM12.6853 16.29H11.9065V20.4317H11.1786V16.29H10.4142V15.6057H12.6854L12.6853 16.29ZM14.6507 20.4317H14.0028V20.0386C13.7408 20.3347 13.4932 20.4827 13.2603 20.4827C13.0371 20.4827 12.8963 20.3928 12.8382 20.2133C12.7994 20.0969 12.7799 19.9197 12.7799 19.6819V16.8358H13.4277V19.4854C13.4277 19.6406 13.4302 19.7256 13.4351 19.7402C13.4496 19.8421 13.5005 19.893 13.5879 19.893C13.7189 19.893 13.8573 19.7911 14.0028 19.5873V16.8358H14.6507L14.6507 20.4317ZM17.1256 19.3544C17.1256 19.7086 17.1038 19.9514 17.0603 20.0825C16.9776 20.3492 16.8055 20.4827 16.5435 20.4827C16.3105 20.4827 16.0849 20.3492 15.8664 20.0825V20.4318H15.2187V15.6057H15.8664V17.1853C16.0752 16.9234 16.3008 16.7923 16.5435 16.7923C16.8055 16.7923 16.9776 16.9283 17.0603 17.2C17.1038 17.3261 17.1256 17.5663 17.1256 17.9206V19.3544ZM19.586 18.7576H18.2831V19.3909C18.2831 19.7257 18.3946 19.893 18.6179 19.893C18.7779 19.893 18.8751 19.8058 18.909 19.6309C18.9186 19.5825 18.9236 19.4345 18.9236 19.187H19.586V19.2816C19.586 19.5195 19.581 19.6601 19.5714 19.7039C19.5569 19.8348 19.5061 19.9658 19.4186 20.0969C19.2439 20.3541 18.9816 20.4827 18.6322 20.4827C18.2976 20.4827 18.0355 20.3589 17.8461 20.1115C17.7055 19.9319 17.6351 19.6505 17.6351 19.2671V18.0077C17.6351 17.6244 17.703 17.3429 17.8388 17.1633C18.0281 16.9159 18.2878 16.7921 18.6179 16.7921C18.9431 16.7921 19.2004 16.9159 19.3894 17.1633C19.5206 17.3429 19.586 17.6244 19.586 18.0077V18.7576Z" fill="white"/>
<path d="M16.1937 17.3816C16.0821 17.3816 15.973 17.4351 15.8662 17.5418V19.7327C15.973 19.8394 16.0821 19.8928 16.1937 19.8928C16.3829 19.8928 16.4778 19.7303 16.4778 19.4051V17.8693C16.4777 17.5441 16.3831 17.3816 16.1937 17.3816Z" fill="white"/>
<path d="M18.6104 17.3816C18.392 17.3816 18.2828 17.5467 18.2828 17.8764V18.2113H18.9379V17.8764C18.9379 17.5465 18.8287 17.3816 18.6104 17.3816Z" fill="white"/>
<path d="M12.2636 11.7186V13.6913H12.9915V11.7186L13.8721 8.81421H13.1296L12.6348 10.7287L12.1179 8.81421H11.3463C11.4822 9.22189 11.64 9.67558 11.8195 10.1755C12.0476 10.8451 12.1956 11.3596 12.2636 11.7186Z" fill="white"/>
<path d="M14.8471 13.7421C15.182 13.7421 15.4391 13.6184 15.6187 13.3709C15.7546 13.1913 15.8225 12.905 15.8225 12.512V11.2381C15.8225 10.8499 15.7544 10.5659 15.6187 10.3863C15.4391 10.1389 15.182 10.0151 14.8471 10.0151C14.5219 10.0151 14.2671 10.1389 14.0827 10.3863C13.9469 10.5659 13.879 10.8499 13.879 11.2381V12.512C13.879 12.9001 13.9468 13.1865 14.0827 13.3709C14.2672 13.6184 14.5219 13.7421 14.8471 13.7421ZM14.534 11.107C14.534 10.7722 14.6384 10.6047 14.8471 10.6047C15.0558 10.6047 15.1601 10.7722 15.1601 11.107V12.6356C15.1601 12.9754 15.0558 13.1451 14.8471 13.1451C14.6384 13.1451 14.534 12.9753 14.534 12.6356V11.107Z" fill="white"/>
<path d="M16.8488 13.7421C17.0916 13.7421 17.3416 13.5916 17.5987 13.2907V13.691H18.2611V10.0587H17.5987V12.8321C17.4531 13.0408 17.3149 13.145 17.1837 13.145C17.0962 13.145 17.0453 13.0917 17.0308 12.9849C17.0259 12.9752 17.0235 12.8902 17.0235 12.7301V10.0587H16.3611V12.9268C16.3611 13.1742 16.3806 13.3561 16.4194 13.4727C16.4825 13.6522 16.6256 13.7421 16.8488 13.7421Z" fill="white"/>
</svg>
